<?xml version="1.0" encoding="UTF-8" standalone="no"?>
<!-- Created with Inkscape (http://www.inkscape.org/) -->

<svg
   width="65.187859mm"
   height="53.68264mm"
   viewBox="0 0 65.187859 53.68264"
   version="1.1"
   id="svg1"
   xml:space="preserve"
   inkscape:version="1.3.1 (91b66b0783, 2023-11-16)"
   sodipodi:docname="logo.svg"
   xmlns:inkscape="http://www.inkscape.org/namespaces/inkscape"
   xmlns:sodipodi="http://sodipodi.sourceforge.net/DTD/sodipodi-0.dtd"
   xmlns="http://www.w3.org/2000/svg"
   xmlns:svg="http://www.w3.org/2000/svg"><sodipodi:namedview
     id="namedview1"
     pagecolor="#ffffff"
     bordercolor="#000000"
     borderopacity="0.25"
     inkscape:showpageshadow="2"
     inkscape:pageopacity="0.0"
     inkscape:pagecheckerboard="0"
     inkscape:deskcolor="#d1d1d1"
     inkscape:document-units="mm"
     inkscape:zoom="1.6097713"
     inkscape:cx="327.37569"
     inkscape:cy="180.46041"
     inkscape:window-width="3840"
     inkscape:window-height="2042"
     inkscape:window-x="-11"
     inkscape:window-y="-11"
     inkscape:window-maximized="1"
     inkscape:current-layer="layer1" /><defs
     id="defs1" /><g
     inkscape:label="Layer 1"
     inkscape:groupmode="layer"
     id="layer1"
     style="display:inline;opacity:0.192"
     transform="translate(-63.620923,-18.824333)" /><g
     inkscape:groupmode="layer"
     id="layer3"
     inkscape:label="Layer 3"
     transform="translate(-63.620923,-18.824333)"><rect
       style="fill:#651313;fill-opacity:1;stroke:none;stroke-width:2.5;stroke-dasharray:none;stroke-opacity:1"
       id="rect4"
       width="37.309906"
       height="3.7802992"
       x="77.496124"
       y="26.215551" /><path
       style="fill:#651313;fill-opacity:1;stroke:#000000;stroke-width:2.5;stroke-dasharray:none;stroke-opacity:1"
       d="m 76.515097,27.307009 c 12.854254,-10.008302 26.360513,-9.280521 39.438893,0.02697"
       id="path4"
       sodipodi:nodetypes="cc" /></g><g
     inkscape:groupmode="layer"
     id="layer2"
     inkscape:label="Layer 2"
     transform="translate(-63.620923,-18.824333)"><g
       id="g5"
       style="stroke:none"><path
         style="fill:#c32626;fill-opacity:1;stroke:none;stroke-width:2.5;stroke-dasharray:none;stroke-opacity:1"
         d="m 76.93588,26.708633 -11.423077,43.514526 15.121196,-7.190785 6.820974,7.519506 8.793302,-6.944243 -0.780714,-33.077615 c 0,0 -20.38074,1.807969 -18.531681,-3.821389 z"
         id="path1" /><path
         style="fill:#c32626;fill-opacity:1;stroke:none;stroke-width:2.5;stroke-dasharray:none;stroke-opacity:1"
         d="m 115.49382,26.707693 11.42308,43.514526 -15.1212,-7.190785 -6.82097,7.519506 -8.793307,-6.944243 0.780714,-33.077615 c 0,0 20.380743,1.807969 18.531683,-3.821389 z"
         id="path1-4" /></g><path
       style="fill:none;fill-opacity:1;stroke:#ffffff;stroke-width:2.5;stroke-dasharray:none;stroke-opacity:1"
       d="m 66.894852,63.936358 14.176121,-6.327891 6.574433,6.738794 8.546763,-6.122442 8.546761,5.752629 6.16353,-6.410071 14.34048,6.697702 v 0 0 0"
       id="path7" /><g
       id="g6"
       style="fill:none"><path
         style="fill:none;fill-opacity:1;stroke:#000000;stroke-width:2.5;stroke-dasharray:none;stroke-opacity:1"
         d="m 76.93588,26.708633 -11.423077,43.514526 15.121196,-7.190785 6.820974,7.519506 8.793302,-6.944243 -0.780714,-33.077615 c 0,0 -20.38074,1.807969 -18.531681,-3.821389 z"
         id="path5" /><path
         style="fill:none;fill-opacity:1;stroke:#000000;stroke-width:2.5;stroke-dasharray:none;stroke-opacity:1"
         d="m 115.49382,26.707693 11.42308,43.514526 -15.1212,-7.190785 -6.82097,7.519506 -8.793307,-6.944243 0.780714,-33.077615 c 0,0 20.380743,1.807969 18.531683,-3.821389 z"
         id="path6" /></g></g><g
     inkscape:groupmode="layer"
     id="layer4"
     inkscape:label="Layer 4"
     transform="translate(-63.620923,-18.824333)"><g
       id="g3"
       transform="translate(68.009294,6.3018191)"
       style="stroke-width:2.5;stroke-dasharray:none"><ellipse
         style="fill:#f0ef37;fill-opacity:1;stroke:#000000;stroke-width:2.5;stroke-dasharray:none;stroke-opacity:1"
         id="path2"
         cx="28.132652"
         cy="27.890205"
         rx="8.8613443"
         ry="8.9887142" /><rect
         style="fill:#000000;fill-opacity:1;stroke:none;stroke-width:2.5;stroke-dasharray:none;stroke-opacity:1"
         id="rect3"
         width="1.602518"
         height="5.7937188"
         x="27.489346"
         y="30.16021" /><rect
         style="fill:#000000;fill-opacity:1;stroke:none;stroke-width:2.5;stroke-dasharray:none;stroke-opacity:1"
         id="rect3-2"
         width="1.602518"
         height="5.7937188"
         x="-30.226641"
         y="25.393009"
         transform="rotate(-90)" /><circle
         style="fill:#000000;fill-opacity:1;stroke:none;stroke-width:2.5;stroke-dasharray:none;stroke-opacity:1"
         id="path3"
         cx="31.002558"
         cy="29.27677"
         r="1.6641533" /><circle
         style="fill:#000000;fill-opacity:1;stroke:none;stroke-width:2.5;stroke-dasharray:none;stroke-opacity:1"
         id="circle3"
         cx="25.510441"
         cy="29.27677"
         r="1.6641533" /></g></g></svg>
